<mxfile host="65bd71144e" modified="2023-11-21T21:43:11.392Z" agent="Mozilla/5.0 (Windows NT 10.0; Win64; x64) AppleWebKit/537.36 (KHTML, like Gecko) Code/1.84.2 Chrome/114.0.5735.289 Electron/25.9.2 Safari/537.36" etag="Dv1rHjqGcLatFsWszvgU" version="22.1.3" type="embed">
    <diagram id="p_pJn7svEYxFl72tqzCv" name="Page-1">
        <mxGraphModel dx="1390" dy="488" grid="1" gridSize="10" guides="1" tooltips="1" connect="1" arrows="1" fold="1" page="1" pageScale="1" pageWidth="850" pageHeight="1100" math="0" shadow="0">
            <root>
                <mxCell id="0"/>
                <mxCell id="1" parent="0"/>
                <mxCell id="9" value="3 Network Schedule&lt;br style=&quot;font-size: 16px;&quot;&gt;generation" style="edgeStyle=none;html=1;exitX=0.5;exitY=1;exitDx=0;exitDy=0;fontSize=16;entryX=1;entryY=0;entryDx=0;entryDy=0;labelBackgroundColor=none;" parent="1" source="2" edge="1" target="13">
                    <mxGeometry y="80" relative="1" as="geometry">
                        <mxPoint x="490" y="450" as="targetPoint"/>
                        <mxPoint as="offset"/>
                    </mxGeometry>
                </mxCell>
                <mxCell id="20" value="4 Network schedule&lt;br style=&quot;font-size: 16px;&quot;&gt;installation" style="edgeStyle=none;html=1;exitX=0;exitY=0.75;exitDx=0;exitDy=0;fontSize=16;labelBackgroundColor=none;" parent="1" source="2" target="3" edge="1">
                    <mxGeometry x="0.5458" y="64" relative="1" as="geometry">
                        <mxPoint as="offset"/>
                    </mxGeometry>
                </mxCell>
                <mxCell id="22" value="4" style="edgeStyle=none;html=1;exitX=1;exitY=0.75;exitDx=0;exitDy=0;fontSize=16;labelBackgroundColor=none;" parent="1" source="2" target="4" edge="1">
                    <mxGeometry x="0.019" y="-19" relative="1" as="geometry">
                        <mxPoint as="offset"/>
                    </mxGeometry>
                </mxCell>
                <mxCell id="2" value="Network&lt;br style=&quot;font-size: 18px;&quot;&gt;Controller" style="rounded=1;whiteSpace=wrap;html=1;fontSize=18;" parent="1" vertex="1">
                    <mxGeometry x="430" y="320" width="120" height="60" as="geometry"/>
                </mxCell>
                <mxCell id="7" value="2 Demand &lt;br&gt;Registration" style="edgeStyle=none;html=1;exitX=1;exitY=0.75;exitDx=0;exitDy=0;entryX=0.326;entryY=0.006;entryDx=0;entryDy=0;fontSize=16;labelBackgroundColor=none;entryPerimeter=0;" parent="1" source="3" target="2" edge="1">
                    <mxGeometry x="0.4827" y="47" relative="1" as="geometry">
                        <mxPoint as="offset"/>
                    </mxGeometry>
                </mxCell>
                <mxCell id="3" value="Processing Node 1&lt;br style=&quot;font-size: 18px;&quot;&gt;(implementing Qoala)" style="rounded=1;whiteSpace=wrap;html=1;fontSize=18;" parent="1" vertex="1">
                    <mxGeometry x="220" y="190" width="180" height="80" as="geometry"/>
                </mxCell>
                <mxCell id="8" value="" style="edgeStyle=none;html=1;exitX=0;exitY=0.75;exitDx=0;exitDy=0;entryX=0.639;entryY=0.019;entryDx=0;entryDy=0;entryPerimeter=0;" parent="1" source="4" target="2" edge="1">
                    <mxGeometry relative="1" as="geometry"/>
                </mxCell>
                <mxCell id="4" value="Processing Node 2&lt;br style=&quot;font-size: 18px;&quot;&gt;(implementing Qoala)" style="rounded=1;whiteSpace=wrap;html=1;fontSize=18;" parent="1" vertex="1">
                    <mxGeometry x="550" y="190" width="180" height="80" as="geometry"/>
                </mxCell>
                <mxCell id="6" value="1 Capability &lt;br&gt;Negotiation" style="endArrow=classic;startArrow=classic;html=1;exitX=1;exitY=0.25;exitDx=0;exitDy=0;entryX=0;entryY=0.25;entryDx=0;entryDy=0;fontSize=16;labelBackgroundColor=none;" parent="1" source="3" target="4" edge="1">
                    <mxGeometry y="23" width="50" height="50" relative="1" as="geometry">
                        <mxPoint x="540" y="320" as="sourcePoint"/>
                        <mxPoint x="590" y="270" as="targetPoint"/>
                        <mxPoint as="offset"/>
                    </mxGeometry>
                </mxCell>
                <mxCell id="18" value="" style="group" parent="1" vertex="1" connectable="0">
                    <mxGeometry x="370" y="460" width="240" height="30" as="geometry"/>
                </mxCell>
                <mxCell id="10" value="" style="rounded=0;whiteSpace=wrap;html=1;" parent="18" vertex="1">
                    <mxGeometry width="30" height="30" as="geometry"/>
                </mxCell>
                <mxCell id="11" value="s1" style="rounded=0;whiteSpace=wrap;html=1;fontSize=18;" parent="18" vertex="1">
                    <mxGeometry x="30" width="30" height="30" as="geometry"/>
                </mxCell>
                <mxCell id="12" value="" style="rounded=0;whiteSpace=wrap;html=1;" parent="18" vertex="1">
                    <mxGeometry x="60" width="30" height="30" as="geometry"/>
                </mxCell>
                <mxCell id="13" value="s2" style="rounded=0;whiteSpace=wrap;html=1;fontSize=18;" parent="18" vertex="1">
                    <mxGeometry x="90" width="30" height="30" as="geometry"/>
                </mxCell>
                <mxCell id="14" value="s3" style="rounded=0;whiteSpace=wrap;html=1;fontSize=18;" parent="18" vertex="1">
                    <mxGeometry x="120" width="30" height="30" as="geometry"/>
                </mxCell>
                <mxCell id="15" value="s1" style="rounded=0;whiteSpace=wrap;html=1;fontSize=18;" parent="18" vertex="1">
                    <mxGeometry x="150" width="30" height="30" as="geometry"/>
                </mxCell>
                <mxCell id="16" value="" style="rounded=0;whiteSpace=wrap;html=1;" parent="18" vertex="1">
                    <mxGeometry x="180" width="30" height="30" as="geometry"/>
                </mxCell>
                <mxCell id="17" value="" style="rounded=0;whiteSpace=wrap;html=1;" parent="18" vertex="1">
                    <mxGeometry x="210" width="30" height="30" as="geometry"/>
                </mxCell>
            </root>
        </mxGraphModel>
    </diagram>
</mxfile>